C:\Users\Nicos\Documents\OpenSimProjects\SprintingProject\Study1\PredictiveResults\IC_pred_Sprinting_optimum_27-October-2023__11-17-52_p02_maxVel_01___IKTD_Plus_2_GRF.mot
version=1
nRows=6
nColumns=127
inDegrees=yes
endheader
time	ground_force_vx	ground_force_vy	ground_force_vz	ground_force_px	ground_force_py	ground_force_pz	ground_torque_x	ground_torque_y	ground_torque_z	1_ground_force_vx	1_ground_force_vy	1_ground_force_vz	1_ground_force_px	1_ground_force_py	1_ground_force_pz	1_ground_torque_x	1_ground_torque_y	1_ground_torque_z	2_ground_force_vx	2_ground_force_vy	2_ground_force_vz	2_ground_force_px	2_ground_force_py	2_ground_force_pz	2_ground_torque_x	2_ground_torque_y	2_ground_torque_z	3_ground_force_vx	3_ground_force_vy	3_ground_force_vz	3_ground_force_px	3_ground_force_py	3_ground_force_pz	3_ground_torque_x	3_ground_torque_y	3_ground_torque_z	4_ground_force_vx	4_ground_force_vy	4_ground_force_vz	4_ground_force_px	4_ground_force_py	4_ground_force_pz	4_ground_torque_x	4_ground_torque_y	4_ground_torque_z	5_ground_force_vx	5_ground_force_vy	5_ground_force_vz	5_ground_force_px	5_ground_force_py	5_ground_force_pz	5_ground_torque_x	5_ground_torque_y	5_ground_torque_z	6_ground_force_vx	6_ground_force_vy	6_ground_force_vz	6_ground_force_px	6_ground_force_py	6_ground_force_pz	6_ground_torque_x	6_ground_torque_y	6_ground_torque_z	7_ground_force_vx	7_ground_force_vy	7_ground_force_vz	7_ground_force_px	7_ground_force_py	7_ground_force_pz	7_ground_torque_x	7_ground_torque_y	7_ground_torque_z	8_ground_force_vx	8_ground_force_vy	8_ground_force_vz	8_ground_force_px	8_ground_force_py	8_ground_force_pz	8_ground_torque_x	8_ground_torque_y	8_ground_torque_z	9_ground_force_vx	9_ground_force_vy	9_ground_force_vz	9_ground_force_px	9_ground_force_py	9_ground_force_pz	9_ground_torque_x	9_ground_torque_y	9_ground_torque_z	10_ground_force_vx	10_ground_force_vy	10_ground_force_vz	10_ground_force_px	10_ground_force_py	10_ground_force_pz	10_ground_torque_x	10_ground_torque_y	10_ground_torque_z	11_ground_force_vx	11_ground_force_vy	11_ground_force_vz	11_ground_force_px	11_ground_force_py	11_ground_force_pz	11_ground_torque_x	11_ground_torque_y	11_ground_torque_z	12_ground_force_vx	12_ground_force_vy	12_ground_force_vz	12_ground_force_px	12_ground_force_py	12_ground_force_pz	12_ground_torque_x	12_ground_torque_y	12_ground_torque_z	13_ground_force_vx	13_ground_force_vy	13_ground_force_vz	13_ground_force_px	13_ground_force_py	13_ground_force_pz	13_ground_torque_x	13_ground_torque_y	13_ground_torque_z
0.056000	-82.122863	39.328320	16.423286	0.361827	-0.001854	0.425939	0.000000	0.000000	0.000000	-1.081197	0.530191	0.238771	0.319118	0.004587	0.447786	0.000000	0.000000	0.000000	-0.021612	0.011185	0.006424	0.292131	0.008556	0.442144	0.000000	0.000000	0.000000	-0.255609	0.129413	0.075064	0.294583	0.006085	0.420098	0.000000	0.000000	0.000000	-0.000000	0.000000	0.000000	0.209182	0.019910	0.474216	0.000000	0.000000	0.000000	-0.001720	0.000890	0.000551	0.262845	0.010979	0.437801	0.000000	0.000000	0.000000	-0.000000	0.000000	0.000000	0.145703	0.020671	0.420428	0.000000	0.000000	0.000000	-0.000000	0.000000	0.000000	-0.538213	0.246658	0.152167	0.000000	0.000000	0.000000	-0.000000	0.000000	0.000000	-0.516560	0.267635	0.136735	0.000000	0.000000	0.000000	-0.000000	0.000000	0.000000	-0.504013	0.279133	0.145097	0.000000	0.000000	0.000000	-0.000000	0.000000	0.000000	-0.510906	0.277070	0.166356	0.000000	0.000000	0.000000	-0.000000	0.000000	0.000000	-0.466610	0.319810	0.124910	0.000000	0.000000	0.000000	-0.000000	0.000000	0.000000	-0.495105	0.292855	0.153313	0.000000	0.000000	0.000000	-0.000000	0.000000	0.000000	-0.459474	0.347743	0.186173	0.000000	0.000000	0.000000
0.056646	-110.277472	53.329660	19.952755	0.365524	-0.002432	0.425304	0.000000	0.000000	0.000000	-2.182672	1.081753	0.447163	0.322659	0.003765	0.447127	0.000000	0.000000	0.000000	-0.054376	0.028314	0.015083	0.295527	0.007640	0.441381	0.000000	0.000000	0.000000	-0.546187	0.278099	0.149337	0.298082	0.005277	0.419299	0.000000	0.000000	0.000000	-0.000000	0.000000	0.000000	0.212352	0.018645	0.473356	0.000000	0.000000	0.000000	-0.004738	0.002467	0.001430	0.266234	0.010012	0.436975	0.000000	0.000000	0.000000	-0.000000	0.000000	0.000000	0.149062	0.019502	0.419352	0.000000	0.000000	0.000000	-0.000000	0.000000	0.000000	-0.526805	0.246547	0.151422	0.000000	0.000000	0.000000	-0.000000	0.000000	0.000000	-0.505282	0.267572	0.136065	0.000000	0.000000	0.000000	-0.000000	0.000000	0.000000	-0.492877	0.279116	0.144510	0.000000	0.000000	0.000000	-0.000000	0.000000	0.000000	-0.499822	0.277037	0.165746	0.000000	0.000000	0.000000	-0.000000	0.000000	0.000000	-0.455705	0.319863	0.124465	0.000000	0.000000	0.000000	-0.000000	0.000000	0.000000	-0.484094	0.292853	0.152762	0.000000	0.000000	0.000000	-0.000000	0.000000	0.000000	-0.448961	0.347798	0.185768	0.000000	0.000000	0.000000
0.058689	-203.530383	102.650138	20.023978	0.376860	-0.004116	0.423905	0.000000	0.000000	0.000000	-11.436945	5.926062	1.511229	0.333497	0.001340	0.445535	0.000000	0.000000	0.000000	-0.737245	0.399061	0.150603	0.305953	0.004899	0.439415	0.000000	0.000000	0.000000	-4.284491	2.262160	0.853010	0.308851	0.002832	0.417256	0.000000	0.000000	0.000000	-0.000026	0.000015	0.000008	0.222043	0.014808	0.470897	0.000000	0.000000	0.000000	-0.091846	0.049686	0.021514	0.276638	0.007080	0.434767	0.000000	0.000000	0.000000	-0.000009	0.000005	0.000003	0.159379	0.015807	0.416177	0.000000	0.000000	0.000000	-0.000000	0.000000	0.000000	-0.490778	0.246184	0.149116	0.000000	0.000000	0.000000	-0.000000	0.000000	0.000000	-0.469628	0.267347	0.134004	0.000000	0.000000	0.000000	-0.000000	0.000000	0.000000	-0.457620	0.278992	0.142636	0.000000	0.000000	0.000000	-0.000000	0.000000	0.000000	-0.464727	0.276862	0.163798	0.000000	0.000000	0.000000	-0.000000	0.000000	0.000000	-0.421197	0.319961	0.123032	0.000000	0.000000	0.000000	-0.000000	0.000000	0.000000	-0.449239	0.292774	0.150998	0.000000	0.000000	0.000000	-0.000000	0.000000	0.000000	-0.415711	0.347904	0.184446	0.000000	0.000000	0.000000
0.060169	-267.324057	140.319593	8.193121	0.384669	-0.005219	0.423476	0.000000	0.000000	0.000000	-25.785622	13.919709	1.797761	0.340944	-0.000277	0.444871	0.000000	0.000000	0.000000	-3.496128	1.981513	0.534429	0.313105	0.003022	0.438410	0.000000	0.000000	0.000000	-12.010251	6.625519	1.765638	0.316262	0.001128	0.416226	0.000000	0.000000	0.000000	-0.000431	0.000257	0.000114	0.228656	0.012170	0.469369	0.000000	0.000000	0.000000	-0.621690	0.351885	0.116740	0.283780	0.005046	0.433547	0.000000	0.000000	0.000000	-0.000161	0.000091	0.000052	0.166480	0.013141	0.414093	0.000000	0.000000	0.000000	-0.000000	0.000000	0.000000	-0.464691	0.245909	0.147488	0.000000	0.000000	0.000000	-0.000000	0.000000	0.000000	-0.443773	0.267162	0.132557	0.000000	0.000000	0.000000	-0.000000	0.000000	0.000000	-0.432002	0.278834	0.141261	0.000000	0.000000	0.000000	-0.000000	0.000000	0.000000	-0.439226	0.276668	0.162368	0.000000	0.000000	0.000000	-0.000000	0.000000	0.000000	-0.396142	0.319964	0.121966	0.000000	0.000000	0.000000	-0.000000	0.000000	0.000000	-0.423919	0.292650	0.149698	0.000000	0.000000	0.000000	-0.000000	0.000000	0.000000	-0.391586	0.347912	0.183448	0.000000	0.000000	0.000000
0.060815	-292.967046	156.839130	1.203193	0.387941	-0.005677	0.423437	0.000000	0.000000	0.000000	-40.343470	22.219318	1.819329	0.344060	-0.000953	0.444706	0.000000	0.000000	0.000000	-6.089837	3.530742	0.812966	0.316093	0.002226	0.438078	0.000000	0.000000	0.000000	-16.841202	9.495032	2.145859	0.319365	0.000395	0.415889	0.000000	0.000000	0.000000	-0.001388	0.000849	0.000349	0.231410	0.011054	0.468768	0.000000	0.000000	0.000000	-1.329257	0.769377	0.226597	0.286766	0.004177	0.433110	0.000000	0.000000	0.000000	-0.000551	0.000318	0.000174	0.169457	0.011982	0.413239	0.000000	0.000000	0.000000	-0.000000	0.000000	0.000000	-0.453304	0.245784	0.146787	0.000000	0.000000	0.000000	-0.000000	0.000000	0.000000	-0.432479	0.267074	0.131936	0.000000	0.000000	0.000000	-0.000000	0.000000	0.000000	-0.420797	0.278748	0.140656	0.000000	0.000000	0.000000	-0.000000	0.000000	0.000000	-0.428073	0.276566	0.161739	0.000000	0.000000	0.000000	-0.000000	0.000000	0.000000	-0.385190	0.319948	0.121493	0.000000	0.000000	0.000000	-0.000000	0.000000	0.000000	-0.412847	0.292578	0.149125	0.000000	0.000000	0.000000	-0.000000	0.000000	0.000000	-0.381043	0.347897	0.183002	0.000000	0.000000	0.000000
0.062858	-353.997494	205.007417	-27.410074	0.397749	-0.006955	0.423796	0.000000	0.000000	0.000000	-113.738190	67.787581	-3.673479	0.353379	-0.002933	0.444626	0.000000	0.000000	0.000000	-21.400442	13.668299	1.807288	0.324908	-0.000218	0.437338	0.000000	0.000000	0.000000	-66.701397	41.290851	5.170368	0.328546	-0.001880	0.415152	0.000000	0.000000	0.000000	-0.043728	0.029595	0.009916	0.239504	0.007635	0.467077	0.000000	0.000000	0.000000	-8.811808	5.611086	1.135030	0.295583	0.001493	0.432016	0.000000	0.000000	0.000000	-0.023453	0.014801	0.007084	0.178281	0.008337	0.410731	0.000000	0.000000	0.000000	-0.000000	0.000000	0.000000	-0.417231	0.245309	0.144527	0.000000	0.000000	0.000000	-0.000000	0.000000	0.000000	-0.396719	0.266718	0.129927	0.000000	0.000000	0.000000	-0.000000	0.000000	0.000000	-0.385344	0.278413	0.138716	0.000000	0.000000	0.000000	-0.000000	0.000000	0.000000	-0.392783	0.276180	0.159721	0.000000	0.000000	0.000000	-0.000000	0.000000	0.000000	-0.350536	0.319831	0.119967	0.000000	0.000000	0.000000	-0.000000	0.000000	0.000000	-0.377815	0.292287	0.147282	0.000000	0.000000	0.000000	-0.000000	0.000000	0.000000	-0.347698	0.347782	0.181545	0.000000	0.000000	0.000000
